<svg aria-hidden="true" style="position: absolute; width: 0; height: 0; overflow: hidden;" version="1.1" xmlns="http://www.w3.org/2000/svg" xmlns:xlink="http://www.w3.org/1999/xlink">
<defs>
<symbol id="icon-MusicNotes" viewBox="0 0 32 32">
<path stroke-linejoin="round" stroke-linecap="butt" stroke-miterlimit="4" stroke-width="1.2" d="M22.5 25c1.933 0 3.5-1.567 3.5-3.5s-1.567-3.5-3.5-3.5v0c-1.933 0-3.5 1.567-3.5 3.5s1.567 3.5 3.5 3.5v0zM6.5 29c1.933 0 3.5-1.567 3.5-3.5s-1.567-3.5-3.5-3.5v0c-1.933 0-3.5 1.567-3.5 3.5s1.567 3.5 3.5 3.5v0z"></path>
<path stroke-linejoin="round" stroke-linecap="round" stroke-miterlimit="4" stroke-width="1.2" d="M26 10l-16 4M10 25.5v-17.5l16-4v17.5"></path>
</symbol>
<symbol id="icon-Swatches" viewBox="0 0 32 32">
<path stroke-linejoin="round" stroke-linecap="butt" stroke-miterlimit="4" stroke-width="1.2" d="M4.787 21.625l3.025-17.138c0.045-0.269 0.193-0.496 0.402-0.645l0.003-0.002c0.159-0.113 0.356-0.181 0.57-0.181 0.062 0 0.123 0.006 0.181 0.017l-0.006-0.001 6.9 1.212c0.473 0.091 0.826 0.502 0.826 0.995 0 0.059-0.005 0.117-0.015 0.174l0.001-0.006-3.038 17.238c-0.391 2.127-2.231 3.716-4.441 3.716-0.246 0-0.487-0.020-0.722-0.057l0.026 0.003c-2.488-0.4-4.15-2.838-3.712-5.325z"></path>
<path stroke-linejoin="round" stroke-linecap="round" stroke-miterlimit="4" stroke-width="1.2" d="M14.988 15.6l9.112-3.312c0.103-0.039 0.222-0.062 0.346-0.062 0.153 0 0.299 0.034 0.428 0.096l-0.006-0.003c0.12 0.056 0.227 0.135 0.316 0.232 0.086 0.094 0.155 0.206 0.2 0.329l0.002 0.007 2.4 6.575c0.037 0.1 0.058 0.215 0.058 0.335 0 0.43-0.271 0.796-0.651 0.937l-0.007 0.002-16.45 5.987"></path>
<path stroke-linejoin="round" stroke-linecap="round" stroke-miterlimit="4" stroke-width="1.2" d="M27.7 20.312v5.688c0 0.552-0.448 1-1 1v0h-17.5"></path>
<path d="M9.2 24c0.828 0 1.5-0.672 1.5-1.5s-0.672-1.5-1.5-1.5v0c-0.828 0-1.5 0.672-1.5 1.5s0.672 1.5 1.5 1.5v0z"></path>
</symbol>
<symbol id="icon-PaintBrush" viewBox="0 0 32 32">
<path stroke-linejoin="round" stroke-linecap="butt" stroke-miterlimit="4" stroke-width="1.2" d="M2.5 27h9c0 0 0 0 0 0 2.692 0 5.002-1.637 5.989-3.97l0.016-0.043c0.313-0.735 0.495-1.59 0.495-2.487 0-1.795-0.728-3.42-1.904-4.596v0c-1.176-1.176-2.801-1.904-4.596-1.904-0.897 0-1.752 0.182-2.53 0.511l0.043-0.016c-2.376 1.003-4.012 3.313-4.012 6.005 0 0 0 0 0 0v0c0 4.5-2.5 6.5-2.5 6.5z"></path>
<path stroke-linejoin="round" stroke-linecap="round" stroke-miterlimit="4" stroke-width="1.2" d="M14.050 14.525c2.4-3.238 8.5-10.65 14.075-10.65 0 5.575-7.412 11.675-10.65 14.075"></path>
<path stroke-linejoin="round" stroke-linecap="round" stroke-miterlimit="4" stroke-width="1.2" d="M16.625 11.325c1.703 0.973 3.077 2.347 4.022 3.998l0.028 0.052"></path>
</symbol>
<symbol id="icon-RocketLaunch" viewBox="0 0 34 32">
<path d="M10.674 19.918c0.176 0.523-0.106 1.091-0.629 1.267-1.694 0.57-2.595 1.994-3.078 3.44-0.154 0.448-0.285 0.983-0.369 1.533l-0.007 0.053c0.604-0.092 1.139-0.223 1.654-0.396l-0.068 0.020c1.446-0.482 2.87-1.382 3.44-3.078 0.176-0.523 0.742-0.805 1.267-0.629s0.805 0.744 0.629 1.267c-0.854 2.542-2.97 3.76-4.704 4.338-0.877 0.291-1.696 0.435-2.294 0.507l-0.726 0.064-0.21 0.008h-0.088s-0.002 0-0.002-1h-1v-0.027l0.002-0.061 0.008-0.21 0.064-0.726c0.072-0.598 0.216-1.419 0.507-2.294 0.578-1.734 1.795-3.848 4.338-4.704 0.523-0.176 1.091 0.106 1.267 0.629zM5.488 27.314v1c-0.552 0-1-0.448-1-1h1zM27.274 5.525c0.168 1.162 0.232 4.018-2.693 6.942l-7.781 7.781-4.248-4.248 7.779-7.781c2.925-2.923 5.782-2.861 6.942-2.693zM27.563 3.547c-1.597-0.23-5.155-0.234-8.646 3.258l-8.486 8.488c-0.187 0.187-0.293 0.442-0.293 0.707s0.106 0.52 0.293 0.707l5.662 5.662c0.39 0.39 1.024 0.39 1.414 0l8.488-8.488c3.491-3.491 3.49-7.050 3.258-8.646-0.063-0.444-0.265-0.832-0.56-1.128l0 0c-0.295-0.296-0.684-0.498-1.118-0.559l-0.010-0.001z"></path>
<path d="M23.875 13.587c0.552 0 1 0.448 1 1v8.090c-0.008 0.547-0.234 1.039-0.595 1.395l-0 0-4.035 4.048c-0.362 0.362-0.862 0.586-1.414 0.586-0.967 0-1.773-0.686-1.959-1.597l-0.002-0.013-1.050-5.237c-0.109-0.541 0.242-1.069 0.784-1.178s1.069 0.243 1.178 0.784l1.050 5.238 4.045-4.056v-8.061c0-0.552 0.448-1 1-1zM10.122 7.925h8.090c0.552 0 1 0.448 1 1s-0.448 1-1 1l-8.069 0.008-4.046 4.037 5.237 1.050c0.541 0.109 0.893 0.635 0.784 1.178s-0.635 0.893-1.178 0.784l-5.235-1.050c-0.924-0.189-1.61-0.995-1.61-1.962 0-0.552 0.224-1.052 0.586-1.414l0.002-0.002 4.046-4.034c0.356-0.361 0.849-0.587 1.394-0.595l0.002-0z"></path>
</symbol>
<symbol id="icon-InstagramLogo" viewBox="0 0 32 32">
<path d="M16 12c-2.209 0-4 1.791-4 4s1.791 4 4 4v0c2.209 0 4-1.791 4-4s-1.791-4-4-4v0zM10 16c0-3.314 2.686-6 6-6s6 2.686 6 6v0c0 3.314-2.686 6-6 6s-6-2.686-6-6v0zM10.5 5.5c-2.761 0-5 2.239-5 5v0 11c0 2.761 2.239 5 5 5v0h11c2.761 0 5-2.239 5-5v0-11c0-2.761-2.239-5-5-5v0h-11zM3.5 10.5c0-3.866 3.134-7 7-7v0h11c3.866 0 7 3.134 7 7v0 11c0 3.866-3.134 7-7 7v0h-11c-3.866 0-7-3.134-7-7v0-11z"></path>
<path d="M22.5 11c0.828 0 1.5-0.672 1.5-1.5s-0.672-1.5-1.5-1.5v0c-0.828 0-1.5 0.672-1.5 1.5s0.672 1.5 1.5 1.5v0z"></path>
</symbol>
<symbol id="icon-TwitterLogo" viewBox="0 0 32 32">
<path stroke-linejoin="round" stroke-linecap="butt" stroke-miterlimit="4" stroke-width="2" d="M16.001 11.001c0-2.75 2.313-5.038 5.063-5 2.015 0.024 3.741 1.237 4.512 2.968l0.013 0.032h4.412l-4.037 4.038c-0.556 8.377-7.488 14.962-15.957 14.962-0.002 0-0.004 0-0.005 0h0c-4 0-5-1.5-5-1.5s4-1.5 6-4.5c0 0-8-4-6-15 0 0 5 5 11 6v-2z"></path>
</symbol>
<symbol id="icon-YoutubeLogo" viewBox="0 0 32 32">
<path d="M13.528 11.118l-0.005 0.003c-0.311 0.169-0.523 0.5-0.523 0.879 0 0 0 0 0 0v8c0 0 0 0 0 0 0 0.552 0.448 1 1 1 0.207 0 0.399-0.063 0.555-0.168l6.004-4.002c0.266-0.18 0.442-0.484 0.442-0.83s-0.175-0.65-0.445-0.832l-5.996-3.998c-0.16-0.108-0.352-0.171-0.559-0.171-0.173 0-0.335 0.044-0.472 0.118zM15 13.869l3.197 2.131-3.197 2.132v-4.263zM15.999 5.049h0.083l0.236 0.002 0.863 0.018 2.897 0.165c2.277 0.193 5.175 0.591 7.406 1.444l0.015 0.006 0.020 0.007c0.432 0.177 0.814 0.451 1.121 0.799 0.312 0.354 0.536 0.777 0.655 1.234l0.001 0.004c0.311 1.219 0.706 3.478 0.706 7.273s-0.395 6.055-0.706 7.273l-0.001 0.004c-0.119 0.457-0.343 0.88-0.655 1.234l-0.003 0.003c-0.304 0.344-0.686 0.619-1.138 0.803l-0.015 0.006c-2.232 0.852-5.13 1.251-7.406 1.443l-2.897 0.165-0.863 0.018-0.236 0.002h-0.163l-0.236-0.002-0.862-0.018-2.897-0.165c-2.277-0.192-5.175-0.591-7.406-1.443l-0.015-0.006-0.020-0.007c-0.864-0.353-1.528-1.097-1.776-2.033l-0.001-0.004c-0.311-1.219-0.706-3.479-0.706-7.273s0.395-6.054 0.706-7.271l0.001-0.004 0.005-0.021c0.122-0.457 0.349-0.872 0.65-1.213l0.003-0.003c0.304-0.345 0.686-0.619 1.138-0.803l0.015-0.006c2.232-0.853 5.13-1.252 7.406-1.444l2.897-0.165 0.862-0.018 0.236-0.002h0.080zM15.995 24.951h0.082l0.219-0.002 0.824-0.017 2.789-0.159c2.236-0.189 4.896-0.57 6.851-1.316 0.149-0.062 0.275-0.153 0.376-0.267l0.001-0.001c0.101-0.114 0.177-0.253 0.218-0.406l0.002-0.007c0.264-1.032 0.643-3.122 0.643-6.775s-0.38-5.743-0.643-6.775c-0.083-0.312-0.303-0.559-0.59-0.679l-0.007-0.002c-1.956-0.745-4.615-1.127-6.851-1.316l-2.789-0.159-0.824-0.017-0.372-0.001-0.219 0.001-0.824 0.017-2.789 0.159c-2.236 0.189-4.896 0.57-6.852 1.316-0.294 0.122-0.514 0.369-0.595 0.674l-0.002 0.007c-0.263 1.032-0.643 3.122-0.643 6.775s0.38 5.743 0.643 6.775c0.083 0.312 0.303 0.559 0.59 0.679l0.007 0.002c1.956 0.745 4.616 1.127 6.852 1.316l2.789 0.159 0.824 0.017 0.219 0.002h0.071z"></path>
</symbol>
<symbol id="icon-DiscordLogo" viewBox="0 0 32 32">
<path d="M8.345 21.701c0.131-0.41 0.509-0.701 0.954-0.701 0.107 0 0.21 0.017 0.306 0.048l-0.007-0.002c1.865 0.605 4.011 0.955 6.238 0.955 0.055 0 0.11-0 0.164-0.001l-0.008 0h0.015c0.046 0 0.1 0.001 0.155 0.001 2.227 0 4.373-0.349 6.386-0.996l-0.148 0.041c0.089-0.029 0.192-0.046 0.299-0.046 0.552 0 1 0.448 1 1 0 0.446-0.291 0.823-0.694 0.953l-0.007 0.002c-2.043 0.663-4.394 1.046-6.835 1.046-0.058 0-0.116-0-0.173-0.001l0.009 0c-0.049 0-0.107 0.001-0.164 0.001-2.44 0-4.791-0.382-6.996-1.090l0.162 0.045c-0.409-0.131-0.701-0.509-0.701-0.954 0-0.107 0.017-0.209 0.048-0.306l-0.002 0.007z"></path>
<path d="M20.22 4.81c0.284-0.163 0.625-0.26 0.988-0.26 0.152 0 0.301 0.017 0.444 0.049l-0.013-0.003c1.485 0.325 2.773 0.737 4.007 1.253l-0.152-0.056c0.571 0.224 1.004 0.692 1.175 1.272l0.004 0.014 4.236 14.144c0.11 0.368 0.113 0.761 0.007 1.131s-0.315 0.702-0.604 0.956l-0.005 0.005c-2.067 1.799-4.869 3.161-8.051 3.941-0.442 0.113-0.909 0.069-1.323-0.124s-0.745-0.52-0.942-0.929l-1.508-2.992c-0.069-0.133-0.11-0.29-0.11-0.456 0-0.552 0.448-1 1-1 0.391 0 0.729 0.224 0.894 0.551l0.003 0.006 1.514 3.002c2.938-0.72 5.432-1.957 7.212-3.506l0.656 0.754-0.662-0.75-4.232-14.158c-1.154-0.473-2.335-0.841-3.543-1.102h-0.002l-0.999 2.987c-0.136 0.402-0.509 0.686-0.95 0.686-0.552 0-1-0.448-1-1 0-0.112 0.018-0.22 0.053-0.321l-0.002 0.007 0.99-2.996c0.165-0.475 0.489-0.86 0.907-1.099l0.010-0.005z"></path>
<path d="M10.798 6.552h-0.011c-1.36 0.298-2.541 0.676-3.671 1.15l0.139-0.052-4.247 14.149c1.783 1.56 4.275 2.795 7.21 3.515l0.001-0.002 1.512-3c0.169-0.325 0.504-0.544 0.89-0.544 0.552 0 1 0.448 1 1 0 0.162-0.038 0.314-0.106 0.449l0.003-0.006-1.508 2.992c-0.198 0.409-0.531 0.737-0.942 0.929s-0.881 0.237-1.323 0.124c-3.182-0.78-5.983-2.142-8.051-3.941l-0.005-0.005c-0.288-0.255-0.498-0.586-0.604-0.956s-0.103-0.762 0.007-1.131l4.237-14.144c0.090-0.305 0.242-0.569 0.443-0.786l-0.001 0.001c0.204-0.221 0.456-0.393 0.737-0.501 1.082-0.46 2.371-0.872 3.703-1.168l0.153-0.029c0.482-0.105 0.987-0.029 1.417 0.213 0.428 0.244 0.751 0.629 0.912 1.090l0.004 0.014 0.003 0.009 0.987 2.988c0.032 0.094 0.051 0.202 0.051 0.314 0 0.552-0.448 1-1 1-0.44 0-0.814-0.284-0.947-0.679l-0.002-0.007-0.985-2.98z"></path>
</symbol>
<symbol id="icon-Eye" viewBox="0 0 32 32">
<path d="M4.542 10.794c2.384-2.384 6.125-4.794 11.458-4.794s9.074 2.41 11.458 4.794c1.189 1.189 2.046 2.376 2.608 3.269l0.629 1.088 0.158 0.315 0.042 0.090 0.013 0.026 0.003 0.008 0.002 0.003v0.002s0 0.002-0.914 0.406l0.914 0.406v0.002l-0.002 0.003-0.003 0.008-0.013 0.026-0.042 0.090-0.158 0.315-0.629 1.088c-0.562 0.891-1.419 2.078-2.608 3.269-2.384 2.384-6.125 4.794-11.458 4.794s-9.074-2.41-11.458-4.794c-1.189-1.189-2.046-2.376-2.608-3.269l-0.629-1.088-0.16-0.315-0.042-0.090-0.011-0.026-0.003-0.008-0.002-0.003v-0.002c-0.277 0.1 0.023-0.036 0.324-0.171l0.588-0.235-0.914-0.406v-0.002l0.002-0.003 0.003-0.008 0.011-0.026 0.042-0.090 0.16-0.315 0.629-1.088c0.562-0.891 1.419-2.078 2.608-3.269zM2 16l-0.914-0.406c-0.115 0.259-0.115 0.554 0 0.813l0.914-0.406zM3.118 16l0.509 0.874c0.7 1.101 1.469 2.057 2.33 2.92l-0-0c2.117 2.115 5.376 4.206 10.043 4.206s7.926-2.091 10.043-4.206c1.061-1.061 1.829-2.123 2.33-2.92l0.509-0.874-0.509-0.874c-0.7-1.101-1.469-2.057-2.33-2.92l0 0c-2.117-2.115-5.376-4.206-10.043-4.206s-7.926 2.091-10.043 4.206c-1.061 1.061-1.829 2.123-2.33 2.92l-0.509 0.874zM30 16l0.914 0.406c0.115-0.259 0.115-0.554 0-0.813l-0.914 0.406zM16 12c-2.209 0-4 1.791-4 4s1.791 4 4 4v0c2.209 0 4-1.791 4-4s-1.791-4-4-4v0zM10 16c0-3.314 2.686-6 6-6s6 2.686 6 6v0c0 3.314-2.686 6-6 6s-6-2.686-6-6v0z"></path>
</symbol>
<symbol id="icon-Planet" viewBox="0 0 32 32">
<path stroke-linejoin="round" stroke-linecap="butt" stroke-miterlimit="4" stroke-width="1.2" d="M16.2 27c6.075 0 11-4.925 11-11s-4.925-11-11-11-11 4.925-11 11 4.925 11 11 11z"></path>
<path stroke-linejoin="round" stroke-linecap="round" stroke-miterlimit="4" stroke-width="1.2" d="M23.225 7.538c3.462-0.95 6.062-0.862 6.838 0.462 1.375 2.388-3.712 7.912-11.362 12.325s-14.975 6.062-16.363 3.675c-0.762-1.325 0.462-3.625 3.012-6.15"></path>
</symbol>
<symbol id="icon-Basketball" viewBox="0 0 32 32">
<path stroke-linejoin="round" stroke-linecap="butt" stroke-miterlimit="4" stroke-width="1.2" d="M16 28c6.628 0 12-5.372 12-12s-5.372-12-12-12-12 5.373-12 12 5.373 12 12 12z"></path>
<path stroke-linejoin="round" stroke-linecap="round" stroke-miterlimit="4" stroke-width="1.2" d="M7.5 7.525c2.163 2.168 3.5 5.161 3.5 8.466 0 0.003 0 0.007 0 0.010v-0c0 0.003 0 0.006 0 0.010 0 3.305-1.337 6.297-3.5 8.466l0-0M24.5 7.525c-2.163 2.172-3.5 5.167-3.5 8.475s1.337 6.303 3.5 8.475l-0-0"></path>
<path stroke-linejoin="round" stroke-linecap="round" stroke-miterlimit="4" stroke-width="1.2" d="M4 16h24"></path>
<path stroke-linejoin="round" stroke-linecap="round" stroke-miterlimit="4" stroke-width="1.2" d="M16 4v24"></path>
</symbol>
<symbol id="icon-MagicWand" viewBox="0 0 32 32">
<path stroke-linejoin="round" stroke-linecap="round" stroke-miterlimit="4" stroke-width="1.2" d="M27.2 16v6"></path>
<path stroke-linejoin="round" stroke-linecap="round" stroke-miterlimit="4" stroke-width="1.2" d="M24.2 19h6M10.7 5v5"></path>
<path stroke-linejoin="round" stroke-linecap="round" stroke-miterlimit="4" stroke-width="1.2" d="M8.2 7.5h5M21.2 23v4"></path>
<path stroke-linejoin="round" stroke-linecap="round" stroke-miterlimit="4" stroke-width="1.2" d="M19.2 25h4"></path>
<path stroke-linejoin="round" stroke-linecap="butt" stroke-miterlimit="4" stroke-width="1.2" d="M23.503 4.704l-18.588 18.588c-0.181 0.181-0.293 0.431-0.293 0.707s0.112 0.526 0.293 0.707l2.585 2.585c0.181 0.181 0.431 0.293 0.707 0.293s0.526-0.112 0.707-0.293l18.588-18.588c0.181-0.181 0.293-0.431 0.293-0.707s-0.112-0.526-0.293-0.707l-2.585-2.585c-0.181-0.181-0.431-0.293-0.707-0.293s-0.526 0.112-0.707 0.293v0z"></path>
<path stroke-linejoin="round" stroke-linecap="round" stroke-miterlimit="4" stroke-width="1.2" d="M18.2 10l4 4"></path>
</symbol>
<symbol id="icon-VideoCamera" viewBox="0 0 32 32">
<path stroke-linejoin="round" stroke-linecap="butt" stroke-miterlimit="4" stroke-width="1.2" d="M3 7.5h16c2.209 0 4 1.791 4 4v0 12c0 0.552-0.448 1-1 1v0h-16c-2.209 0-4-1.791-4-4v0-12c0-0.552 0.448-1 1-1v0 0z"></path>
<path stroke-linejoin="round" stroke-linecap="round" stroke-miterlimit="4" stroke-width="1.2" d="M23 14l7-4v12l-7-4"></path>
</symbol>
<symbol id="icon-Camera" viewBox="0 0 32 32">
<path stroke-linejoin="round" stroke-linecap="butt" stroke-miterlimit="4" stroke-width="1.2" d="M26.2 26h-20c-1.105 0-2-0.895-2-2v0-14c0-1.105 0.895-2 2-2v0h4l2-3h8l2 3h4c1.105 0 2 0.895 2 2v0 14c0 1.105-0.895 2-2 2v0z"></path>
<path stroke-linejoin="round" stroke-linecap="butt" stroke-miterlimit="4" stroke-width="1.2" d="M16.2 21c2.485 0 4.5-2.015 4.5-4.5s-2.015-4.5-4.5-4.5-4.5 2.015-4.5 4.5 2.015 4.5 4.5 4.5z"></path>
</symbol>
<symbol id="icon-Storefront" viewBox="0 0 32 32">
<path d="M6 12.451c0.552 0 1 0.448 1 1v12.55h18v-12.55c0-0.552 0.448-1 1-1s1 0.448 1 1v12.55c0 0.53-0.211 1.039-0.586 1.414s-0.884 0.586-1.414 0.586h-18c-0.53 0-1.039-0.211-1.414-0.586s-0.586-0.884-0.586-1.414v-12.55c0-0.552 0.448-1 1-1z"></path>
<path d="M3 5c0-0.552 0.448-1 1-1h24c0.552 0 1 0.448 1 1s-0.448 1-1 1h-24c-0.552 0-1-0.448-1-1z"></path>
<path d="M4 7c0.552 0 1 0.448 1 1v2c0 0.796 0.316 1.559 0.879 2.121s1.326 0.879 2.121 0.879c0.796 0 1.559-0.316 2.121-0.879s0.879-1.326 0.879-2.121v-2c0-0.552 0.448-1 1-1s1 0.448 1 1v2c0 1.326-0.527 2.598-1.464 3.535s-2.209 1.465-3.536 1.465-2.598-0.527-3.536-1.465c-0.938-0.938-1.464-2.209-1.464-3.535v-2c0-0.552 0.448-1 1-1z"></path>
<path d="M12 7c0.552 0 1 0.448 1 1v2c0 0.796 0.316 1.559 0.879 2.121s1.326 0.879 2.121 0.879 1.559-0.316 2.121-0.879c0.563-0.563 0.879-1.326 0.879-2.121v-2c0-0.552 0.448-1 1-1s1 0.448 1 1v2c0 1.326-0.527 2.598-1.465 3.535s-2.209 1.465-3.535 1.465-2.598-0.527-3.536-1.465c-0.938-0.938-1.464-2.209-1.464-3.535v-2c0-0.552 0.448-1 1-1z"></path>
<path d="M20 7c0.552 0 1 0.448 1 1v2c0 0.796 0.316 1.559 0.879 2.121s1.326 0.879 2.121 0.879 1.559-0.316 2.121-0.879c0.563-0.563 0.879-1.326 0.879-2.121v-2c0-0.552 0.448-1 1-1s1 0.448 1 1v2c0 1.326-0.527 2.598-1.465 3.535s-2.209 1.465-3.535 1.465-2.598-0.527-3.535-1.465c-0.938-0.938-1.465-2.209-1.465-3.535v-2c0-0.552 0.448-1 1-1z"></path>
</symbol>
<symbol id="icon-NFT-Marketplace" viewBox="0 0 300 32">
<path d="M11.22 21.82h0.594v-20.922h4.356v23.1h-8.514l-2.706-20.922h-0.594v20.922h-4.356v-23.1h8.514l2.706 20.922zM21.098 0.898h14.784v4.158h-10.428v5.28h10.23v4.158h-10.23v9.504h-4.356v-23.1zM40.182 0.898h16.632v4.158h-6.138v18.942h-4.356v-18.942h-6.138v-4.158zM79.538 0.898h7.656l1.32 17.358v3.366h0.792v-3.366l1.32-17.358h7.656v23.1h-3.96v-15.444l0.396-5.28h-0.792l-1.716 20.724h-6.534l-1.782-20.724h-0.792l0.396 5.28v15.444h-3.96v-23.1zM112.184 21.622c-0.44 1.034-1.056 1.772-1.848 2.212-0.792 0.418-1.716 0.626-2.772 0.626-0.012 0-0.026 0-0.040 0-0.998 0-1.948-0.206-2.81-0.578l0.046 0.018c-0.896-0.399-1.655-0.957-2.273-1.644l-0.005-0.006c-0.66-0.726-1.188-1.606-1.584-2.64-0.374-1.034-0.562-2.21-0.562-3.53v-0.528c0-1.298 0.186-2.464 0.562-3.498s0.88-1.914 1.518-2.64c0.601-0.692 1.337-1.249 2.17-1.634l0.040-0.016c0.794-0.375 1.724-0.594 2.706-0.594 0.012 0 0.024 0 0.036 0h-0.002c1.166 0 2.1 0.198 2.804 0.594 0.726 0.396 1.298 1.012 1.716 1.848h0.594v-1.98h4.158v11.418c0 0.66 0.296 0.99 0.89 0.99h0.628v3.96h-2.836c-0.748 0-1.364-0.22-1.848-0.66-0.428-0.412-0.694-0.989-0.694-1.629 0-0.031 0.001-0.061 0.002-0.091l-0 0.004h-0.594zM108.488 20.5c1.21 0 2.178-0.396 2.904-1.188 0.726-0.814 1.088-1.914 1.088-3.3v-0.396c0-1.386-0.362-2.476-1.088-3.268-0.726-0.814-1.694-1.22-2.904-1.22s-2.178 0.408-2.904 1.222c-0.726 0.792-1.088 1.882-1.088 3.268v0.396c0 1.386 0.362 2.486 1.088 3.3 0.726 0.792 1.694 1.188 2.904 1.188zM121.006 7.63h6.93v2.376h0.594c0.279-0.866 0.824-1.582 1.536-2.069l0.014-0.009c0.748-0.506 1.64-0.758 2.674-0.758 1.628 0 2.938 0.516 3.926 1.552 0.99 1.012 1.486 2.562 1.486 4.652v0.726l-4.29 0.396v-0.462c0-0.902-0.232-1.616-0.694-2.144-0.462-0.55-1.156-0.824-2.080-0.824s-1.65 0.318-2.178 0.956-0.792 1.552-0.792 2.74v5.28h3.762v3.96h-11.286v-3.96h3.366v-8.452h-2.97v-3.96zM147.482 13.636h0.792l4.356-6.006h4.554v0.198l-5.28 7.492v0.594l5.808 7.886v0.198h-4.752l-4.686-6.402h-0.792v6.402h-4.158v-23.1h4.158v12.738zM165.872 17.168c0.020 0.495 0.139 0.958 0.339 1.375l-0.009-0.021c0.231 0.41 0.517 0.759 0.853 1.052l0.005 0.004c0.374 0.286 0.792 0.516 1.254 0.692 0.447 0.146 0.962 0.23 1.496 0.23 0.008 0 0.015-0 0.023-0h-0.001c1.034 0 1.826-0.176 2.376-0.528 0.55-0.374 0.946-0.814 1.188-1.32l3.564 1.98c-0.198 0.418-0.472 0.858-0.824 1.32-0.352 0.44-0.814 0.846-1.386 1.222-0.55 0.374-1.232 0.682-2.046 0.924-0.792 0.242-1.726 0.362-2.804 0.362-1.232 0-2.354-0.198-3.366-0.594s-1.892-0.968-2.64-1.716c-0.729-0.764-1.312-1.675-1.697-2.683l-0.019-0.055c-0.396-1.078-0.594-2.298-0.594-3.662v-0.198c0-1.254 0.21-2.398 0.626-3.432 0.44-1.034 1.034-1.914 1.782-2.64s1.616-1.288 2.606-1.684c1.012-0.418 2.090-0.626 3.234-0.626 1.408 0 2.618 0.252 3.63 0.758 0.988 0.463 1.822 1.097 2.501 1.871l0.007 0.009c0.627 0.702 1.123 1.538 1.437 2.457l0.015 0.051c0.308 0.902 0.462 1.782 0.462 2.64v2.21h-12.012zM169.8 10.93c-1.056 0-1.914 0.274-2.574 0.824-0.66 0.528-1.088 1.144-1.288 1.848h7.722c-0.132-0.77-0.55-1.408-1.254-1.914-0.682-0.506-1.55-0.758-2.606-0.758zM181.954 7.63h4.852v-6.732h4.158v6.732h5.906v3.96h-5.906v7.458c0 0.66 0.296 0.99 0.89 0.99h4.422v3.96h-6.93c-0.748 0-1.364-0.242-1.848-0.726-0.462-0.484-0.694-1.1-0.694-1.848v-9.834h-4.852v-3.96zM205.922 30.598h-4.158v-22.968h4.158v2.376h0.594c0.423-0.88 1.080-1.59 1.892-2.066l0.022-0.012c0.836-0.506 1.902-0.758 3.2-0.758 0.968 0 1.882 0.186 2.74 0.562 0.88 0.374 1.638 0.924 2.276 1.65 0.66 0.704 1.178 1.572 1.552 2.606 0.396 1.034 0.594 2.212 0.594 3.532v0.594c0 1.342-0.188 2.53-0.562 3.564s-0.88 1.914-1.518 2.64c-0.638 0.704-1.396 1.242-2.276 1.618-0.858 0.352-1.794 0.528-2.806 0.528-0.039 0.001-0.085 0.001-0.131 0.001-0.645 0-1.27-0.085-1.865-0.245l0.050 0.011c-0.551-0.15-1.034-0.364-1.475-0.639l0.023 0.013c-0.396-0.264-0.738-0.56-1.024-0.89-0.264-0.352-0.494-0.714-0.692-1.090h-0.594v8.976zM210.278 20.5c1.298 0 2.342-0.396 3.134-1.188 0.814-0.814 1.222-1.914 1.222-3.3v-0.396c0-1.386-0.408-2.476-1.222-3.268-0.792-0.814-1.836-1.22-3.134-1.22s-2.354 0.418-3.168 1.254c-0.792 0.814-1.188 1.892-1.188 3.234v0.396c0 1.342 0.396 2.43 1.188 3.266 0.814 0.814 1.87 1.22 3.168 1.22zM222.728 20.038h5.742v-15.18h-5.544v-3.96h9.702v19.14h5.346v3.96h-15.246v-3.96zM253.626 21.622c-0.44 1.034-1.056 1.772-1.848 2.212-0.792 0.418-1.716 0.626-2.772 0.626-0.99 0-1.924-0.188-2.804-0.56-0.858-0.374-1.618-0.924-2.278-1.65s-1.188-1.606-1.584-2.64c-0.374-1.034-0.56-2.21-0.56-3.53v-0.528c0-1.298 0.186-2.464 0.56-3.498s0.88-1.914 1.518-2.64 1.376-1.276 2.212-1.65c0.858-0.396 1.77-0.594 2.738-0.594 1.166 0 2.102 0.198 2.806 0.594 0.726 0.396 1.298 1.012 1.716 1.848h0.594v-1.98h4.158v11.418c0 0.66 0.296 0.99 0.89 0.99h0.628v3.96h-2.838c-0.748 0-1.364-0.22-1.848-0.66-0.462-0.44-0.694-1.012-0.694-1.716h-0.594zM249.93 20.5c1.21 0 2.178-0.396 2.904-1.188 0.726-0.814 1.090-1.914 1.090-3.3v-0.396c0-1.386-0.364-2.476-1.090-3.268-0.726-0.814-1.694-1.22-2.904-1.22s-2.178 0.408-2.904 1.222c-0.726 0.792-1.088 1.882-1.088 3.268v0.396c0 1.386 0.362 2.486 1.088 3.3 0.726 0.792 1.694 1.188 2.904 1.188zM279.212 17.992c-0.374 1.936-1.266 3.498-2.674 4.686-1.386 1.188-3.244 1.782-5.576 1.782-1.21 0-2.344-0.188-3.4-0.56-1.034-0.374-1.936-0.914-2.706-1.618s-1.374-1.574-1.814-2.606-0.66-2.21-0.66-3.53v-0.396c0-1.32 0.22-2.508 0.66-3.564 0.436-1.056 1.050-1.956 1.813-2.705l0.001-0.001c0.766-0.725 1.677-1.307 2.684-1.697l0.056-0.019c1.056-0.396 2.178-0.594 3.366-0.594 2.288 0 4.136 0.594 5.544 1.782 1.43 1.188 2.332 2.75 2.706 4.686l-4.092 1.056c-0.133-0.991-0.587-1.857-1.253-2.507l-0.001-0.001c-0.704-0.704-1.694-1.056-2.97-1.056-0.007-0-0.015-0-0.024-0-0.599 0-1.17 0.121-1.689 0.341l0.029-0.011c-0.543 0.229-1.005 0.553-1.384 0.956l-0.002 0.002c-0.396 0.396-0.714 0.892-0.956 1.484-0.209 0.553-0.331 1.193-0.331 1.861 0 0.031 0 0.061 0.001 0.092l-0-0.005v0.198c-0 0.026-0.001 0.058-0.001 0.089 0 0.667 0.121 1.305 0.343 1.894l-0.012-0.037c0.242 0.55 0.56 1.012 0.956 1.386 0.387 0.365 0.848 0.656 1.358 0.849l0.028 0.009c0.528 0.176 1.090 0.264 1.684 0.264 1.276 0 2.244-0.318 2.904-0.956 0.682-0.638 1.122-1.496 1.32-2.574l4.092 1.022zM287.108 17.168c0.020 0.495 0.139 0.958 0.339 1.375l-0.009-0.021c0.231 0.41 0.517 0.759 0.853 1.052l0.005 0.004c0.374 0.286 0.792 0.516 1.254 0.692 0.447 0.146 0.962 0.23 1.496 0.23 0.008 0 0.015-0 0.023-0h-0.001c1.034 0 1.826-0.176 2.376-0.528 0.55-0.374 0.946-0.814 1.188-1.32l3.564 1.98c-0.198 0.418-0.472 0.858-0.824 1.32-0.352 0.44-0.814 0.846-1.386 1.222-0.55 0.374-1.232 0.682-2.046 0.924-0.792 0.242-1.728 0.362-2.806 0.362-1.232 0-2.354-0.198-3.366-0.594s-1.892-0.968-2.64-1.716c-0.729-0.764-1.312-1.675-1.697-2.683l-0.019-0.055c-0.396-1.078-0.594-2.298-0.594-3.662v-0.198c0-1.254 0.21-2.398 0.628-3.432 0.44-1.034 1.034-1.914 1.782-2.64s1.616-1.288 2.606-1.684c1.012-0.418 2.090-0.626 3.234-0.626 1.408 0 2.618 0.252 3.63 0.758 0.988 0.463 1.822 1.097 2.501 1.871l0.007 0.009c0.627 0.702 1.123 1.538 1.437 2.457l0.015 0.051c0.308 0.902 0.462 1.782 0.462 2.64v2.21h-12.012zM291.036 10.932c-1.056 0-1.914 0.274-2.574 0.824-0.66 0.528-1.090 1.144-1.288 1.848h7.722c-0.132-0.77-0.55-1.408-1.254-1.914-0.682-0.506-1.55-0.758-2.606-0.758z"></path>
</symbol>
<symbol id="icon-Burger-Menu" viewBox="0 0 32 32">
<path d="M4 16c0-0.552 0.448-1 1-1h22c0.552 0 1 0.448 1 1s-0.448 1-1 1h-22c-0.552 0-1-0.448-1-1z"></path>
<path d="M4 8c0-0.552 0.448-1 1-1h15c0.552 0 1 0.448 1 1s-0.448 1-1 1h-15c-0.552 0-1-0.448-1-1z"></path>
<path d="M4 24c0-0.552 0.448-1 1-1h15c0.552 0 1 0.448 1 1s-0.448 1-1 1h-15c-0.552 0-1-0.448-1-1z"></path>
</symbol>
<symbol id="icon-User" viewBox="0 0 32 32">
<path d="M16 5c-3.866 0-7 3.134-7 7s3.134 7 7 7c3.866 0 7-3.134 7-7s-3.134-7-7-7zM7 12c0-4.971 4.029-9 9-9s9 4.029 9 9c0 4.971-4.029 9-9 9s-9-4.029-9-9z"></path>
<path d="M16 20.998c-2.282 0-4.524 0.601-6.5 1.742s-3.617 2.782-4.758 4.759c-0.276 0.478-0.888 0.642-1.366 0.366s-0.642-0.888-0.366-1.366c1.316-2.281 3.21-4.175 5.49-5.491s4.867-2.010 7.501-2.010 5.22 0.693 7.501 2.010c2.28 1.317 4.174 3.211 5.49 5.491 0.276 0.478 0.112 1.090-0.366 1.366s-1.090 0.112-1.366-0.366c-1.141-1.977-2.782-3.618-4.758-4.759s-4.218-1.742-6.5-1.742z"></path>
</symbol>
</defs>
</svg>
